ffmpeg version 3.4.8-0ubuntu0.2 Copyright (c) 2000-2020 the FFmpeg developers
  built with gcc 7 (Ubuntu 7.5.0-3ubuntu1~18.04)
  configuration: --prefix=/usr --extra-version=0ubuntu0.2 --toolchain=hardened --libdir=/usr/lib/x86_64-linux-gnu --incdir=/usr/include/x86_64-linux-gnu --enable-gpl --disable-stripping --enable-avresample --enable-avisynth --enable-gnutls --enable-ladspa --enable-libass --enable-libbluray --enable-libbs2b --enable-libcaca --enable-libcdio --enable-libflite --enable-libfontconfig --enable-libfreetype --enable-libfribidi --enable-libgme --enable-libgsm --enable-libmp3lame --enable-libmysofa --enable-libopenjpeg --enable-libopenmpt --enable-libopus --enable-libpulse --enable-librubberband --enable-librsvg --enable-libshine --enable-libsnappy --enable-libsoxr --enable-libspeex --enable-libssh --enable-libtheora --enable-libtwolame --enable-libvorbis --enable-libvpx --enable-libwavpack --enable-libwebp --enable-libx265 --enable-libxml2 --enable-libxvid --enable-libzmq --enable-libzvbi --enable-omx --enable-openal --enable-opengl --enable-sdl2 --enable-libdc1394 --enable-libdrm --enable-libiec61883 --enable-chromaprint --enable-frei0r --enable-libopencv --enable-libx264 --enable-shared
  libavutil      55. 78.100 / 55. 78.100
  libavcodec     57.107.100 / 57.107.100
  libavformat    57. 83.100 / 57. 83.100
  libavdevice    57. 10.100 / 57. 10.100
  libavfilter     6.107.100 /  6.107.100
  libavresample   3.  7.  0 /  3.  7.  0
  libswscale      4.  8.100 /  4.  8.100
  libswresample   2.  9.100 /  2.  9.100
  libpostproc    54.  7.100 / 54.  7.100
Invalid UE golomb code
    Last message repeated 5 times
[h264 @ 0x55bf6e9367e0] Overread VUI by 8 bits
[h264 @ 0x55bf6e9367e0] SPS decoding failure, trying again after escaping the NAL
Input #0, mov,mp4,m4a,3gp,3g2,mj2, from '/root/results/2020-11-30_15:05:31/sample2604_0.00029.mp4':
  Metadata:
    major_brand     : isom
    minor_version   : 512
    compatible_brands: isomiso2avc1mp41
    encoder         : Lavf58.45.100
  Duration: 00:00:01.02, start: 0.000000, bitrate: 170 kb/s
    Stream #0:0(und): Video: h264 (High) (avc1 / 0x31637661), yuv420p, 640x360 [SAR 1:1 DAR 16:9], 20 kb/s, 25 fps, 25 tbr, 12800 tbn, 21845.38 tbc (default)
    Metadata:
      handler_name    : ISO Media file produced by Google Inc. Created on: 11/24/2020.
    Stream #0:1(eng): Audio: aac (LC) (mp4a / 0x6134706D), 44100 Hz, stereo, fltp, 4233 kb/s (default)
    Metadata:
      handler_name    : ISO Media file produced by Google Inc. Created on: 11/24/2020.
Invalid UE golomb code
    Last message repeated 5 times
[h264 @ 0x55bf6e968ee0] Overread VUI by 8 bits
[h264 @ 0x55bf6e968ee0] SPS decoding failure, trying again after escaping the NAL
Stream mapping:
  Stream #0:0 -> #0:0 (h264 (native) -> mpeg4 (native))
  Stream #0:1 -> #0:1 (aac (native) -> mp3 (libmp3lame))
Press [q] to stop, [?] for help
[h264 @ 0x55bf6e9f5720] cabac decode of qscale diff failed at 23 10
[h264 @ 0x55bf6e9f5720] error while decoding MB 23 10, bytestream -4
[h264 @ 0x55bf6e9f5720] concealing 546 DC, 546 AC, 546 MV errors in B frame
[h264 @ 0x55bf6ea11a00] error while decoding MB 22 10, bytestream -26
[aac @ 0x55bf6e938f80] skip_data_stream_element: Input buffer exhausted before END element found
Error while decoding stream #0:1: Invalid data found when processing input
[h264 @ 0x55bf6ea11a00] concealing 547 DC, 547 AC, 547 MV errors in P frame
[h264 @ 0x55bf6ea2dd60] Invalid NAL unit size (555371437 > 252).
[h264 @ 0x55bf6ea2dd60] Error splitting the input into NAL units.
[aac @ 0x55bf6e938f80] Reserved bit set.
[aac @ 0x55bf6e938f80] Prediction is not allowed in AAC-LC.
Error while decoding stream #0:1: Invalid data found when processing input
[aac @ 0x55bf6e938f80] Multiple frames in a packet.
[aac @ 0x55bf6e938f80] channel element 3.0 is not allocated
Error while decoding stream #0:1: Invalid data found when processing input
[aac @ 0x55bf6e938f80] invalid band type
Error while decoding stream #0:1: Invalid data found when processing input
[aac @ 0x55bf6e938f80] channel element 3.0 is not allocated
Error while decoding stream #0:1: Invalid data found when processing input
[h264 @ 0x55bf6eadefc0] mmco: unref short failure
[aac @ 0x55bf6e938f80] Reserved bit set.
[aac @ 0x55bf6e938f80] Prediction is not allowed in AAC-LC.
Error while decoding stream #0:1: Invalid data found when processing input
[aac @ 0x55bf6e938f80] Input buffer exhausted before END element found
Error while decoding stream #0:1: Invalid data found when processing input
[h264 @ 0x55bf6eb4fa40] Reference 5 >= 4
[h264 @ 0x55bf6eb4fa40] error while decoding MB 7 22, bytestream -3
[h264 @ 0x55bf6eb4fa40] concealing 82 DC, 82 AC, 82 MV errors in P frame
[aac @ 0x55bf6e938f80] channel element 1.11 is not allocated
Error while decoding stream #0:1: Invalid data found when processing input
[aac @ 0x55bf6e938f80] Input buffer exhausted before END element found
Error while decoding stream #0:1: Invalid data found when processing input
Output #0, avi, to '/root/results/2020-11-30_15:05:31/sample2604_0.00029.avi':
  Metadata:
    major_brand     : isom
    minor_version   : 512
    compatible_brands: isomiso2avc1mp41
    ISFT            : Lavf57.83.100
    Stream #0:0(und): Video: mpeg4 (FMP4 / 0x34504D46), yuv420p, 640x360 [SAR 1:1 DAR 16:9], q=2-31, 200 kb/s, 25 fps, 25 tbn, 25 tbc (default)
    Metadata:
      handler_name    : ISO Media file produced by Google Inc. Created on: 11/24/2020.
      encoder         : Lavc57.107.100 mpeg4
    Side data:
      cpb: bitrate max/min/avg: 0/0/200000 buffer size: 0 vbv_delay: -1
    Stream #0:1(eng): Audio: mp3 (libmp3lame) (U[0][0][0] / 0x0055), 44100 Hz, stereo, fltp (default)
    Metadata:
      handler_name    : ISO Media file produced by Google Inc. Created on: 11/24/2020.
      encoder         : Lavc57.107.100 libmp3lame
[aac @ 0x55bf6e938f80] Prediction is not allowed in AAC-LC.
Error while decoding stream #0:1: Invalid data found when processing input
[aac @ 0x55bf6e938f80] Reserved bit set.
[aac @ 0x55bf6e938f80] ms_present = 3 is reserved.
Error while decoding stream #0:1: Invalid data found when processing input
Error while decoding stream #0:0: Invalid data found when processing input
[aac @ 0x55bf6e938f80] TYPE_FIL: Input buffer exhausted before END element found
Error while decoding stream #0:1: Invalid data found when processing input
[h264 @ 0x55bf6ea11a00] Reference 5 >= 4
[h264 @ 0x55bf6ea11a00] error while decoding MB 21 11, bytestream 8
[h264 @ 0x55bf6ea11a00] concealing 508 DC, 508 AC, 508 MV errors in P frame
[aac @ 0x55bf6e938f80] Input buffer exhausted before END element found
Error while decoding stream #0:1: Invalid data found when processing input
[aac @ 0x55bf6e938f80] Number of bands (48) exceeds limit (41).
Error while decoding stream #0:1: Invalid data found when processing input
[aac @ 0x55bf6e938f80] TNS filter order 31 is greater than maximum 12.
Error while decoding stream #0:1: Invalid data found when processing input
frame=   23 fps=0.0 q=2.0 Lsize=      36kB time=00:00:01.04 bitrate= 279.5kbits/s speed= 7.7x    
video:12kB audio:12kB subtitle:0kB other streams:0kB global headers:0kB muxing overhead: 46.474579%
